<?xml version="1.0" standalone="no"?>
<!DOCTYPE svg PUBLIC "-//W3C//DTD SVG 20010904//EN"
 "http://www.w3.org/TR/2001/REC-SVG-20010904/DTD/svg10.dtd">
<svg version="1.0" xmlns="http://www.w3.org/2000/svg"
 width="1280.000000pt" height="1280.000000pt" viewBox="0 0 1280.000000 1280.000000"
 preserveAspectRatio="xMidYMid meet">
<metadata>
Created by potrace 1.16, written by Peter Selinger 2001-2019
</metadata>
<g transform="translate(0.000000,1280.000000) scale(0.100000,-0.100000)"
fill="#000000" stroke="none">
<path d="M1860 8294 c-480 -60 -849 -290 -967 -602 -95 -254 -58 -537 92 -687
81 -80 231 -145 340 -145 65 0 70 -8 71 -103 0 -68 5 -94 25 -133 39 -79 64
-87 314 -96 244 -9 464 -30 424 -41 -36 -9 -76 -43 -96 -80 -13 -26 -18 -79
-25 -272 -8 -264 -2 -327 38 -374 50 -59 189 -84 343 -62 62 9 95 9 137 1 40
-8 571 -12 1927 -14 l1872 -2 55 -31 c123 -71 378 -69 553 5 l62 26 535 0 535
1 62 -32 c135 -71 379 -69 556 4 l62 26 560 3 c1730 9 1616 7 1663 28 57 25
89 65 101 128 5 29 12 150 14 268 7 289 -4 328 -103 374 -42 20 -62 21 -310
22 -146 0 -447 2 -670 4 -390 4 -407 3 -456 -17 -29 -11 -70 -35 -91 -52 l-40
-32 -349 -1 c-346 -2 -350 -2 -419 22 -97 34 -194 33 -294 -3 -79 -29 -168
-35 -217 -17 -15 6 -42 24 -60 39 -56 50 -90 56 -309 56 -225 0 -254 -6 -318
-64 l-40 -36 -226 3 c-200 3 -233 6 -291 25 -87 29 -193 28 -275 -2 -59 -22
-70 -23 -590 -26 -560 -4 -653 1 -688 33 -12 11 -36 27 -53 35 -66 34 -329 49
-435 25 -69 -15 -160 -15 -224 0 -27 6 -109 15 -181 18 -168 9 -218 -2 -285
-62 -49 -44 -51 -44 -123 -44 -70 0 -77 2 -115 34 -60 50 -100 61 -226 61 -92
-1 -118 -4 -159 -23 -60 -27 -72 -27 -130 -1 -79 35 -368 50 -551 28 -64 -7
-108 -19 -153 -41 l-63 -30 -59 31 c-41 22 -86 36 -147 45 -78 11 -84 13 -52
19 20 4 78 28 128 52 51 25 101 45 111 45 11 0 43 -10 72 -22 50 -22 66 -23
313 -23 227 0 267 2 313 18 57 20 84 19 197 -7 144 -33 353 -16 472 39 69 31
98 31 173 0 93 -39 176 -55 293 -55 259 0 449 95 530 267 31 66 32 71 32 208
0 135 -1 142 -31 210 -29 65 -32 80 -37 215 -6 164 -23 233 -64 272 -55 52
-272 93 -457 86 -123 -5 -133 -7 -304 -72 -42 -16 -44 -16 -111 14 -101 44
-182 60 -306 60 -79 0 -133 -6 -190 -21 -112 -29 -135 -33 -135 -23 -1 44 -23
152 -36 173 -9 14 -42 45 -74 68 -32 23 -77 66 -99 96 -49 68 -97 89 -197 89
-99 0 -150 -24 -205 -97 -66 -87 -85 -90 -169 -20 -90 75 -232 138 -383 171
-70 15 -317 27 -387 18z m328 -149 c90 -19 195 -58 253 -95 63 -41 168 -152
213 -227 167 -278 130 -670 -84 -883 -144 -144 -320 -188 -580 -144 -107 18
-259 23 -338 11 -51 -7 -53 -7 -47 12 19 61 25 160 31 476 7 357 0 499 -31
588 -12 36 -12 37 12 37 41 0 225 41 291 65 l64 23 -6 -26 c-20 -98 -27 -286
-24 -644 3 -385 4 -397 24 -425 33 -44 79 -66 138 -66 60 0 103 20 140 64 153
181 189 527 86 811 -38 105 -70 157 -132 219 -113 113 -266 147 -423 94 -182
-60 -293 -169 -351 -342 -23 -70 -26 -89 -21 -183 2 -58 10 -121 16 -140 19
-61 74 -143 119 -177 47 -35 46 -36 -28 -52 -150 -34 -319 20 -389 123 -47 70
-62 121 -62 213 0 228 144 420 416 556 216 108 511 155 713 112z m921 -168
c23 -21 60 -45 82 -54 l41 -16 -47 -23 c-60 -28 -109 -75 -145 -138 l-28 -49
-17 34 c-32 62 -83 116 -139 145 l-55 28 52 28 c58 31 109 83 139 142 l20 39
28 -50 c15 -27 47 -66 69 -86z m120 -997 c6 -30 20 -67 31 -82 11 -15 20 -30
20 -33 0 -3 -103 -5 -230 -5 -147 0 -230 4 -230 10 0 6 4 10 9 10 15 0 39 73
51 158 15 100 9 393 -9 437 -7 17 -22 40 -33 52 -12 13 -20 25 -17 27 2 2 46
15 97 30 103 29 251 95 273 122 12 15 15 -28 20 -327 4 -194 11 -368 18 -399z
m673 700 c70 -26 130 -78 158 -136 18 -36 21 -58 18 -109 -3 -54 -10 -72 -41
-118 -20 -29 -58 -68 -82 -86 -84 -60 -202 -87 -269 -61 -37 14 -34 -5 12 -65
88 -119 268 -135 375 -33 22 21 43 36 45 33 9 -9 -32 -76 -76 -126 -84 -94
-241 -143 -384 -120 -142 23 -244 95 -303 214 -131 265 4 560 285 624 73 17
193 9 262 -17z m768 -1 c50 -17 67 -19 82 -10 10 6 20 11 23 11 3 0 5 -65 5
-145 0 -80 -4 -145 -9 -145 -5 0 -20 37 -35 83 -46 144 -134 229 -221 213 -42
-8 -95 -66 -95 -104 0 -59 49 -104 201 -184 170 -89 239 -167 239 -270 -1
-112 -75 -202 -206 -249 -91 -33 -238 -32 -321 3 -34 14 -78 38 -96 54 -36 30
-103 121 -96 128 5 6 201 76 211 76 4 0 -4 -19 -17 -42 -29 -51 -34 -131 -9
-166 20 -28 65 -52 100 -52 42 0 113 39 129 71 42 80 5 127 -177 220 -165 85
-228 158 -228 262 0 166 166 285 381 272 42 -2 105 -14 139 -26z m-2165 -1332
c57 -57 60 -169 5 -230 -25 -28 -34 -32 -80 -32 l-52 0 5 -40 c3 -22 8 -47 12
-56 6 -15 -4 -17 -75 -17 -73 -1 -81 1 -75 16 25 65 31 290 10 359 -7 21 -4
22 61 26 165 8 153 10 189 -26z m825 -27 c0 -53 2 -60 20 -60 11 0 20 -3 20
-8 0 -4 -9 -13 -20 -20 -18 -11 -20 -23 -20 -116 0 -115 9 -137 46 -107 19 16
20 20 8 42 -30 54 -10 147 40 187 54 42 168 41 212 -3 30 -30 31 -66 1 -101
-19 -22 -34 -28 -80 -32 -31 -2 -57 -9 -57 -14 0 -21 22 -49 52 -64 29 -15 32
-15 59 5 54 40 66 21 20 -31 -28 -31 -33 -33 -93 -32 -43 0 -74 6 -96 19 -29
18 -32 18 -50 2 -44 -40 -139 -29 -161 19 -6 14 -11 69 -11 124 0 55 -4 102
-10 105 -18 11 -11 22 21 35 33 14 69 62 69 93 0 9 7 17 15 17 12 0 15 -13 15
-60z m6500 52 c36 -6 46 -11 48 -29 5 -37 -15 -63 -51 -63 -25 0 -40 9 -69 42
-35 41 -38 42 -54 26 -26 -26 -6 -55 73 -108 76 -52 112 -94 120 -143 12 -76
-59 -136 -160 -137 -109 0 -178 86 -111 139 40 31 64 28 64 -9 0 -38 24 -86
48 -99 28 -15 61 -2 68 26 9 33 -17 66 -99 128 -79 59 -104 102 -91 154 18 69
84 92 214 73z m-6835 -26 c-21 -69 -14 -294 11 -359 4 -11 -11 -14 -71 -15
-41 0 -75 1 -75 3 0 2 7 30 15 62 22 84 17 253 -10 315 -6 15 1 17 65 16 68 0
71 -1 65 -22z m810 0 c-3 -11 -9 -56 -12 -98 l-6 -78 56 31 c31 17 61 37 65
46 13 22 45 12 56 -19 13 -38 -6 -58 -57 -58 l-40 0 25 -20 c22 -16 78 -140
78 -170 0 -5 -31 -9 -69 -9 l-69 0 5 72 c4 55 1 77 -10 92 -12 16 -18 17 -28
8 -9 -9 -10 -27 -1 -75 5 -35 13 -70 17 -79 5 -14 -5 -16 -70 -17 l-77 -1 7
27 c33 119 33 277 0 354 -6 15 1 17 65 16 68 0 71 -1 65 -22z m820 0 c-3 -11
-9 -56 -12 -98 l-6 -78 56 31 c31 17 61 37 65 46 13 22 45 12 56 -19 13 -38
-6 -58 -57 -58 l-40 0 25 -20 c22 -16 78 -140 78 -170 0 -5 -31 -9 -69 -9
l-69 0 5 72 c4 55 1 77 -10 92 -12 16 -18 17 -28 8 -9 -9 -10 -27 -1 -75 5
-35 13 -70 17 -79 5 -14 -5 -16 -70 -17 l-77 -1 7 27 c33 119 33 277 0 354 -6
15 1 17 65 16 68 0 71 -1 65 -22z m431 -7 c-4 -16 -9 -43 -12 -61 -5 -26 -4
-30 11 -24 30 11 73 50 91 84 21 37 45 41 74 12 42 -42 19 -78 -64 -96 -49
-11 -50 -11 -25 -22 53 -21 68 -56 104 -228 l6 -32 -73 1 -73 0 3 96 c3 86 1
99 -18 124 -12 15 -26 27 -31 27 -18 0 -9 -131 15 -221 l7 -26 -76 -1 -77 -1
7 27 c33 119 33 277 0 354 -6 15 1 17 65 16 l71 0 -5 -29z m2729 -20 c15 -58
52 -139 94 -204 l32 -50 -7 75 c-6 83 -30 190 -44 204 -19 19 -9 24 51 24 52
0 59 -2 54 -16 -25 -67 -33 -316 -11 -364 7 -15 0 -17 -58 -17 l-65 0 -21 63
c-19 59 -104 216 -117 216 -15 0 23 -194 51 -262 7 -14 -1 -16 -64 -16 -63 0
-71 2 -65 16 29 74 47 286 30 354 l-7 27 68 -2 68 -2 11 -46z m2445 4 c0 -49
-9 -52 -53 -19 -18 13 -41 26 -52 28 -18 3 -20 -3 -23 -62 -3 -59 10 -204 24
-271 l6 -26 -77 -1 c-68 0 -76 1 -70 16 26 61 45 314 27 341 -8 12 -16 10 -44
-7 -48 -31 -78 -46 -81 -41 -2 2 -2 22 0 44 l5 40 169 0 169 0 0 -42z m220 10
c0 -76 68 -305 101 -337 19 -20 8 -24 -55 -24 l-63 0 5 94 5 94 -30 0 c-37 0
-43 -15 -43 -116 l0 -71 -85 -1 c-47 0 -84 3 -83 7 49 92 77 190 85 301 l6 85
78 0 79 0 0 -32z m295 -14 c15 -58 52 -139 94 -204 l32 -50 -7 75 c-6 83 -30
190 -44 204 -19 19 -9 24 51 24 52 0 59 -2 54 -16 -25 -67 -33 -316 -11 -364
7 -15 0 -17 -58 -17 l-65 0 -21 63 c-19 59 -104 216 -117 216 -15 0 23 -194
51 -262 7 -14 -1 -16 -64 -16 -63 0 -71 2 -65 16 29 74 47 286 30 354 l-7 27
68 -2 68 -2 11 -46z m-3929 -16 c4 -14 2 -34 -5 -45 -9 -14 -8 -25 4 -48 19
-37 19 -73 -1 -115 -17 -36 -65 -65 -109 -65 -64 0 -107 -50 -69 -81 13 -11
21 -6 54 29 48 53 86 57 124 11 14 -17 26 -37 26 -44 0 -7 3 -20 6 -28 4 -11
-6 -16 -43 -20 -26 -3 -59 -9 -72 -13 -21 -6 -23 -5 -17 12 4 10 10 34 13 51
l6 33 -50 -50 c-38 -38 -57 -50 -80 -50 -40 0 -83 34 -83 66 0 26 -10 28 -109
24 -42 -2 -43 0 -37 22 4 12 10 57 13 98 3 56 1 80 -10 94 -19 26 -32 15 -47
-40 -13 -45 -7 -106 14 -156 7 -14 -2 -16 -69 -16 -75 -1 -77 0 -70 21 30 94
29 201 -2 233 -16 15 -16 17 2 30 10 8 29 14 42 14 25 0 63 -32 63 -54 0 -8
14 0 34 20 51 51 105 43 125 -18 6 -18 15 -67 21 -108 6 -41 15 -87 21 -102
l11 -27 21 20 c12 11 32 22 44 25 22 6 21 7 -11 38 -89 83 -32 206 95 206 39
0 98 25 105 45 10 24 33 18 40 -12z m1750 0 c4 -14 2 -34 -5 -45 -9 -14 -8
-25 4 -48 19 -37 19 -73 -1 -115 -17 -36 -65 -65 -109 -65 -64 0 -107 -50 -69
-81 13 -11 21 -6 54 29 48 53 86 57 124 11 14 -17 26 -37 26 -44 0 -7 3 -20 6
-28 4 -11 -6 -16 -43 -20 -26 -3 -59 -9 -72 -13 -21 -6 -23 -5 -17 12 4 10 10
34 13 51 l6 33 -50 -50 c-57 -57 -92 -64 -137 -29 -47 37 -24 109 41 125 22 6
21 7 -11 38 -89 83 -32 206 95 206 39 0 98 25 105 45 10 24 33 18 40 -12z
m-5771 -53 c61 -38 82 -137 46 -217 -23 -50 -62 -73 -126 -73 -91 0 -138 50
-139 150 -1 69 17 114 58 140 42 27 118 27 161 0z m1295 0 c11 -11 20 -26 20
-34 0 -8 14 0 34 20 61 61 116 38 134 -58 6 -29 15 -78 20 -108 6 -30 13 -65
17 -77 7 -21 4 -22 -70 -22 -75 0 -77 0 -70 22 3 12 9 56 12 97 3 56 1 80 -10
94 -19 26 -32 15 -47 -40 -13 -45 -7 -106 14 -156 7 -14 -2 -16 -69 -16 -75
-1 -77 0 -70 21 30 94 29 201 -2 233 -16 15 -16 17 2 30 27 20 62 17 85 -6z
m1385 6 c58 -24 71 -76 32 -122 -19 -22 -34 -28 -80 -32 -31 -2 -57 -9 -57
-14 0 -21 22 -49 52 -64 29 -15 32 -15 59 5 54 40 66 21 20 -31 -28 -31 -33
-33 -93 -32 -77 1 -117 21 -147 74 -47 84 -9 194 75 220 45 13 101 11 139 -4z
m634 -1 c37 -19 51 -60 51 -149 0 -44 6 -82 15 -100 13 -24 13 -31 3 -38 -31
-19 -93 0 -103 32 -7 22 -7 22 -34 -4 -15 -14 -34 -26 -42 -26 -8 0 -20 -5
-26 -11 -13 -13 -57 -2 -78 21 -9 10 -19 37 -22 59 -5 36 -2 44 29 75 24 24
49 37 92 47 57 12 58 13 52 43 -10 48 -22 52 -48 12 -45 -71 -123 -56 -104 20
6 21 11 25 31 20 13 -3 34 -2 47 3 35 15 106 13 137 -4z m970 0 c37 -19 51
-60 51 -149 0 -44 6 -82 15 -100 13 -24 13 -31 3 -38 -31 -19 -93 0 -103 32
-7 22 -7 22 -34 -4 -15 -14 -34 -26 -42 -26 -8 0 -20 -5 -26 -11 -13 -13 -57
-2 -78 21 -9 10 -19 37 -22 59 -5 36 -2 44 29 75 24 24 49 37 92 47 57 12 58
13 52 43 -10 48 -22 52 -48 12 -45 -71 -123 -56 -104 20 6 21 11 25 31 20 13
-3 34 -2 47 3 35 15 106 13 137 -4z m181 -5 c11 -11 20 -26 20 -34 0 -8 14 0
34 20 61 61 116 38 134 -58 6 -29 15 -78 20 -108 6 -30 13 -65 17 -77 7 -21 4
-22 -70 -22 -75 0 -77 0 -70 22 3 12 9 56 12 97 3 56 1 80 -10 94 -19 26 -32
15 -47 -40 -13 -45 -7 -106 14 -156 7 -14 -2 -16 -69 -16 -75 -1 -77 0 -70 21
30 94 29 201 -2 233 -16 15 -16 17 2 30 27 20 62 17 85 -6z m945 6 c58 -24 71
-76 32 -122 -19 -22 -34 -28 -80 -32 -31 -2 -57 -9 -57 -14 0 -21 22 -49 52
-64 29 -15 32 -15 59 5 54 40 66 21 20 -31 -28 -31 -33 -33 -93 -32 -77 1
-117 21 -147 74 -47 84 -9 194 75 220 45 13 101 11 139 -4z m624 -1 c37 -18
51 -60 51 -146 0 -37 5 -80 11 -96 10 -27 11 -27 24 -9 29 39 30 172 1 237 -6
14 6 17 97 21 58 3 116 3 130 1 30 -6 43 -34 28 -61 -15 -28 -39 -34 -79 -21
-31 10 -37 9 -49 -7 -17 -23 -16 -98 2 -149 8 -22 15 -43 15 -47 0 -4 -36 -7
-80 -7 -44 0 -85 -3 -91 -7 -21 -13 -79 7 -92 32 l-13 25 -24 -26 c-13 -14
-31 -25 -40 -25 -9 0 -21 -5 -27 -11 -13 -13 -57 -2 -78 21 -9 10 -19 37 -22
59 -5 36 -2 44 29 75 24 24 49 37 92 47 57 12 58 13 52 43 -10 48 -22 52 -48
12 -45 -71 -123 -56 -104 20 6 21 11 25 31 20 13 -3 34 -2 47 3 35 15 106 13
137 -4z m580 0 c37 -19 51 -60 51 -149 0 -44 6 -82 15 -100 13 -24 13 -31 3
-38 -31 -19 -93 0 -103 32 -7 22 -7 22 -34 -4 -15 -14 -34 -26 -42 -26 -8 0
-20 -5 -26 -11 -13 -13 -57 -2 -78 21 -9 10 -19 37 -22 59 -5 36 -2 44 29 75
24 24 49 37 92 47 57 12 58 13 52 43 -10 48 -22 52 -48 12 -45 -71 -123 -56
-104 20 6 21 11 25 31 20 13 -3 34 -2 47 3 35 15 106 13 137 -4z m-6229 2 c0
-1 -7 -20 -15 -42 -19 -52 -19 -130 0 -191 8 -27 15 -50 15 -51 0 -1 -34 -2
-76 -2 -65 0 -75 2 -70 16 29 74 32 221 6 247 -20 20 -8 25 65 25 41 0 75 -1
75 -2z m1300 0 c0 -1 -7 -20 -15 -42 -19 -52 -19 -130 0 -191 8 -27 15 -50 15
-51 0 -1 -34 -2 -76 -2 -65 0 -75 2 -70 16 29 74 32 221 6 247 -20 20 -8 25
65 25 41 0 75 -1 75 -2z m1183 -30 c-13 -53 -10 -172 6 -191 13 -15 15 -15 31
-1 27 24 43 98 37 165 l-5 60 60 0 60 0 -6 -27 c-21 -95 -18 -190 9 -255 6
-15 1 -18 -29 -18 -39 0 -76 28 -76 57 0 13 -8 9 -33 -15 -37 -36 -92 -51
-125 -33 -28 15 -39 63 -45 188 l-4 102 64 0 64 0 -8 -32z"/>
<path d="M3684 7673 c-9 -10 -26 -38 -38 -63 -26 -58 -34 -277 -14 -355 12
-46 15 -50 43 -48 68 5 115 101 115 235 0 126 -40 247 -82 248 -4 0 -14 -8
-24 -17z"/>
<path d="M9133 8220 c-23 -5 -75 -27 -115 -49 -40 -22 -116 -53 -168 -70 -166
-54 -189 -80 -199 -221 -7 -98 1 -95 -125 -61 -107 28 -236 28 -363 -1 -114
-26 -117 -25 -127 79 -16 177 -66 227 -222 227 -103 -1 -149 -26 -207 -113
-55 -83 -106 -125 -217 -180 -94 -47 -95 -47 -224 -12 -61 16 -108 21 -203 21
-67 0 -123 3 -123 6 0 3 7 28 16 55 21 65 15 183 -12 229 -10 18 -35 41 -54
51 -99 52 -446 52 -535 0 -16 -9 -41 -34 -54 -54 -13 -20 -29 -37 -36 -37 -6
0 -29 18 -50 40 -55 56 -123 79 -254 87 -133 7 -341 -12 -429 -38 -143 -44
-271 -134 -335 -236 -52 -83 -77 -180 -77 -301 0 -255 114 -410 343 -468 34
-9 66 -21 70 -28 9 -13 -1 -93 -15 -121 -6 -11 -24 -35 -39 -52 -37 -43 -52
-103 -47 -188 6 -93 27 -131 86 -158 43 -20 63 -22 252 -22 189 0 209 2 252
22 57 26 75 53 89 130 15 83 -1 163 -45 228 -35 52 -53 120 -37 144 9 14 3 21
263 -299 164 -202 174 -209 331 -221 62 -4 141 -15 177 -23 81 -19 215 -20
300 -1 57 13 78 12 174 -1 95 -14 122 -14 200 -3 103 15 160 16 293 4 80 -7
105 -5 186 15 l94 23 64 -23 c88 -30 238 -38 342 -16 67 13 89 14 169 3 73
-10 223 -11 703 -5 336 5 644 9 685 9 41 1 138 -2 215 -6 126 -7 150 -5 225
14 172 43 279 121 342 248 33 67 33 69 33 208 -1 134 -2 143 -32 210 -28 64
-31 82 -36 215 -7 164 -23 233 -64 272 -37 36 -62 44 -206 69 -120 20 -163 21
-411 6 l-40 -2 -13 64 c-16 81 -30 102 -96 146 -28 19 -75 63 -102 98 -61 74
-98 90 -202 87 -149 -4 -210 -4 -278 2 -38 4 -89 3 -112 -2z m107 -644 c0
-539 4 -612 41 -674 10 -18 19 -35 19 -38 0 -2 -101 -4 -225 -4 -124 0 -225 2
-225 5 0 3 7 16 15 29 37 56 45 148 45 528 0 381 -6 452 -41 484 -10 9 -19 22
-19 29 0 6 37 22 82 34 91 24 255 98 277 124 7 9 17 14 22 11 5 -3 9 -235 9
-528z m316 502 c31 -61 83 -115 138 -144 l55 -28 -52 -28 c-58 -31 -109 -83
-139 -142 l-20 -39 -28 49 c-35 62 -82 106 -142 136 l-48 24 38 17 c56 25 118
82 149 138 16 27 29 49 30 49 1 0 10 -15 19 -32z m-3590 -31 c16 -18 142 -176
279 -350 138 -173 254 -316 258 -316 5 -1 7 117 5 262 -3 247 -5 265 -26 312
-26 57 -46 81 -87 106 -30 19 -30 19 140 19 152 -1 168 -2 150 -15 -44 -33
-69 -62 -89 -105 -20 -44 -21 -62 -24 -560 -1 -284 -7 -519 -12 -524 -26 -26
-63 11 -256 250 -109 136 -231 286 -269 333 -39 47 -135 166 -214 263 -78 97
-160 193 -182 213 -71 64 -116 38 -126 -72 -15 -163 100 -293 270 -305 20 -2
37 -5 37 -9 0 -14 -71 -71 -115 -91 -42 -19 -67 -23 -155 -23 -118 0 -165 15
-234 75 -62 55 -81 101 -81 200 0 74 4 92 28 138 38 72 107 136 192 178 85 42
146 51 336 53 l147 1 28 -33z m1874 -187 l0 -150 45 0 c25 0 45 -4 45 -10 0
-5 -20 -10 -45 -10 l-45 0 0 -299 c0 -171 4 -311 10 -325 14 -37 51 -34 85 5
14 17 28 29 31 26 13 -13 -30 -109 -68 -152 -116 -131 -275 -122 -351 20 -21
38 -22 56 -27 366 -4 293 -7 329 -22 346 -22 23 -23 33 -4 33 7 0 45 16 83 35
85 42 178 132 219 210 16 30 32 55 37 55 4 0 7 -67 7 -150z m1900 -473 c0
-345 7 -427 41 -485 10 -18 19 -35 19 -38 0 -2 -101 -4 -225 -4 -124 0 -225 2
-225 4 0 3 9 20 19 38 29 51 41 149 41 339 0 189 -7 237 -40 281 -12 16 -20
31 -18 32 1 2 44 15 93 30 105 32 244 95 264 119 7 9 17 17 22 17 5 0 9 -149
9 -333z m-2661 312 c112 -25 205 -97 254 -196 30 -59 32 -71 56 -311 22 -207
36 -254 79 -260 74 -11 -39 -73 -145 -80 -124 -8 -201 27 -227 102 l-13 39
-22 -40 c-51 -90 -186 -137 -285 -99 -96 37 -167 160 -151 264 9 61 25 91 72
133 38 34 62 46 188 95 141 55 159 78 144 193 -14 117 -52 165 -112 142 -61
-23 -87 -161 -48 -248 l20 -42 -22 9 c-12 5 -59 23 -104 40 -46 17 -83 36 -83
41 0 19 40 89 71 124 75 86 205 123 328 94z m1372 -3 c134 -31 246 -143 273
-271 3 -17 15 -117 26 -224 21 -209 37 -263 78 -269 36 -5 25 -28 -25 -53 -34
-15 -73 -24 -130 -27 -75 -4 -88 -2 -138 23 -57 27 -85 62 -85 107 -1 20 -2
20 -14 -7 -16 -38 -68 -90 -109 -111 -48 -25 -137 -30 -190 -9 -54 20 -110 75
-133 130 -22 52 -22 160 -1 200 19 37 72 88 114 109 17 8 68 29 114 46 97 35
145 65 159 100 13 31 -3 157 -25 200 -32 61 -90 62 -127 1 -30 -47 -33 -172
-5 -214 9 -14 17 -28 17 -31 0 -5 -200 70 -208 79 -3 3 2 22 12 42 72 151 226
220 397 179z m1899 -17 c50 -17 67 -19 82 -10 10 6 20 11 23 11 3 0 5 -65 5
-145 0 -80 -4 -145 -9 -145 -5 0 -18 30 -30 68 -53 174 -158 263 -255 217 -38
-18 -66 -58 -66 -95 0 -58 50 -103 208 -186 163 -86 232 -166 232 -270 -1
-107 -78 -200 -202 -243 -149 -51 -307 -31 -421 53 -31 22 -97 107 -97 123 0
9 192 83 214 83 4 0 -1 -11 -12 -25 -11 -14 -25 -47 -32 -74 -9 -40 -9 -55 4
-84 17 -42 68 -77 110 -77 43 0 109 35 129 69 43 74 0 131 -163 216 -180 94
-240 161 -240 270 0 207 267 332 520 244z m-4628 -461 c3 -175 5 -185 30 -234
15 -28 40 -63 56 -76 l30 -25 -156 -6 c-86 -3 -158 -5 -160 -3 -2 2 13 14 33
26 77 47 105 142 105 351 0 111 2 129 18 138 38 23 40 17 44 -171z"/>
<path d="M7002 7362 c-42 -63 -52 -100 -52 -202 0 -104 23 -165 66 -176 22 -6
31 -2 47 17 17 21 18 33 12 89 -4 36 -12 120 -19 187 -7 67 -14 125 -17 127
-2 3 -19 -16 -37 -42z"/>
<path d="M8366 7368 c-39 -52 -56 -112 -56 -197 0 -89 12 -139 40 -169 27 -29
56 -28 76 3 15 23 15 38 -1 202 -10 98 -21 182 -25 186 -4 5 -19 -7 -34 -25z"/>
<path d="M11225 8176 c-139 -27 -237 -77 -310 -158 -53 -59 -76 -100 -98 -175
-36 -121 -31 -265 15 -401 l21 -63 -26 -67 c-36 -93 -46 -144 -47 -237 0 -250
119 -407 360 -474 109 -31 253 -37 370 -17 231 41 362 163 402 376 17 92 5
263 -26 353 -32 95 -32 105 -1 167 73 144 73 351 0 475 -54 92 -173 175 -300
209 -84 23 -273 29 -360 12z m356 -162 c183 -87 222 -258 90 -397 -40 -43 -99
-77 -132 -77 -18 0 -9 -13 48 -73 39 -41 82 -98 96 -128 49 -100 58 -227 21
-315 -18 -44 -78 -111 -118 -131 -115 -59 -322 -57 -444 6 -191 99 -199 375
-14 487 l51 31 -56 64 c-82 94 -113 166 -113 259 1 115 49 199 148 257 71 42
125 53 247 50 99 -2 116 -5 176 -33z"/>
<path d="M11329 8017 c-30 -23 -49 -75 -49 -135 0 -88 41 -162 141 -256 45
-42 85 -76 89 -76 30 0 49 139 32 230 -16 86 -51 169 -89 211 -29 32 -42 39
-72 39 -20 0 -43 -6 -52 -13z"/>
<path d="M11191 7330 c-35 -161 19 -378 108 -437 60 -41 122 -27 147 32 29 70
10 170 -49 259 -35 52 -172 196 -187 196 -5 0 -13 -23 -19 -50z"/>
</g>
</svg>
